{"title":"A Clockwork Orange [1971] BRRip XviD - CODY","uid":7315331,"size":1370309385,"categoryP":"video","categoryS":"movies","magnet":"?xt=urn:btih:54c5873f628b353457a7fca3e5bd63e96af4e000&amp;dn=A+Clockwork+Orange+%5B1971%5D+BRRip+XviD+-+CODY&amp;tr=udp%3A%2F%2Ftracker.openbittorrent.com%3A80&amp;tr=udp%3A%2F%2Fopen.demonii.com%3A1337&amp;tr=udp%3A%2F%2Ftracker.coppersurfer.tk%3A6969&amp;tr=udp%3A%2F%2Fexodus.desync.com%3A6969","seeders":2,"leechers":0,"uploader":"CODYBOSS1969","files":7,"time":1338470308,"description":"General\nComplete name                            : A Clockwork Orange [1971] BRRip XviD - CODY.avi\nFormat                                   : AVI\nFormat/Info                              : Audio Video Interleave\nFile size                                : 1.28 GiB\nDuration                                 : 2h 16mn\nOverall bit rate                         : 1 337 Kbps\nWriting application                      : VirtualDubMod 1.5.10.3 | www.virtualdub-fr.org || (build 2550/release)\nWriting library                          : VirtualDubMod build 2550/release\n\nVideo\nID                                       : 0\nFormat                                   : MPEG-4 Visual\nFormat profile                           : Advanced Simple@L5\nFormat settings, BVOP                    : 4\nFormat settings, QPel                    : No\nFormat settings, GMC                     : No warppoints\nFormat settings, Matrix                  : Default (H.263)\nCodec ID                                 : XVID\nCodec ID/Hint                            : XviD\nDuration                                 : 2h 16mn\nBit rate                                 : 1 200 Kbps\nWidth                                    : 720 pixels\nHeight                                   : 432 pixels\nDisplay aspect ratio                     : 1.667\nFrame rate                               : 23.976 fps\nColor space                              : YUV\nChroma subsampling                       : 4:2:0\nBit depth                                : 8 bits\nScan type                                : Progressive\nCompression mode                         : Lossy\nBits/(Pixel*Frame)                       : 0.161\nStream size                              : 1.14 GiB (90%)\nWriting library                          : XviD 1.2.1 (UTC 2008-12-04)\n\nAudio\nID                                       : 1\nFormat                                   : MPEG Audio\nFormat version                           : Version 1\nFormat profile                           : Layer 3\nCodec ID                                 : 55\nCodec ID/Hint                            : MP3\nDuration                                 : 2h 16mn\nBit rate mode                            : Constant\nBit rate                                 : 128 Kbps\nChannel(s)                               : 2 channels\nSampling rate                            : 48.0 KHz\nCompression mode                         : Lossy\nStream size                              : 125 MiB (10%)\nAlignment                                : Aligned on interleaves\nInterleave, duration                     : 42 ms (1.00 video frame)\nInterleave, preload duration             : 504 ms\nWriting library                          : L3.99r\nEncoding settings                        : -m s -V 4 -q 2 -lowpass 17 -b 128\n\n\n\nIMDB link:                                &lt;a href=&quot; http://www.imdb.com/title/tt0066921/&quot; rel=&quot;nofollow&quot; target=&quot;_NEW&quot;&gt; http://www.imdb.com/title/tt0066921/&lt;/a&gt;\n\n\nSubtitles included                       : English, Romanian, Spanish\n\n\nPlease seed at least 1,5:1. This way this torrent has a chance to survive !\n\n\nThanks. Enjoy !!\t","torrent":{"xt":"urn:btih:54c5873f628b353457a7fca3e5bd63e96af4e000","amp;dn":"A+Clockwork+Orange+%5B1971%5D+BRRip+XviD+-+CODY","amp;tr":["udp%3A%2F%2Ftracker.openbittorrent.com%3A80","udp%3A%2F%2Fopen.demonii.com%3A1337","udp%3A%2F%2Ftracker.coppersurfer.tk%3A6969","udp%3A%2F%2Fexodus.desync.com%3A6969"],"infoHash":"54c5873f628b353457a7fca3e5bd63e96af4e000","infoHashBuffer":{"type":"Buffer","data":[84,197,135,63,98,139,53,52,87,167,252,163,229,189,99,233,106,244,224,0]},"announce":[],"urlList":[]}}